<svg xmlns="http://www.w3.org/2000/svg" viewBox="0 0 108 108" shape-rendering="crispEdges">
  <!-- Pocket Linux: pixel penguin peeking out of a pocket whose hem is a window title bar. 27x27 grid, 4 units per pixel, Android adaptive icon canvas. -->
  <rect width="108" height="108" fill="#101418"/>
  <rect x="40" y="16" width="28" height="4" fill="#4A5363"/>
  <rect x="36" y="20" width="36" height="4" fill="#4A5363"/>
  <rect x="32" y="24" width="8" height="4" fill="#4A5363"/>
  <rect x="40" y="24" width="12" height="4" fill="#F2EFE8"/>
  <rect x="52" y="24" width="4" height="4" fill="#4A5363"/>
  <rect x="56" y="24" width="12" height="4" fill="#F2EFE8"/>
  <rect x="68" y="24" width="8" height="4" fill="#4A5363"/>
  <rect x="32" y="28" width="8" height="4" fill="#4A5363"/>
  <rect x="40" y="28" width="4" height="4" fill="#F2EFE8"/>
  <rect x="48" y="28" width="12" height="4" fill="#F2EFE8"/>
  <rect x="64" y="28" width="4" height="4" fill="#F2EFE8"/>
  <rect x="68" y="28" width="8" height="4" fill="#4A5363"/>
  <rect x="32" y="32" width="8" height="4" fill="#4A5363"/>
  <rect x="40" y="32" width="4" height="4" fill="#F2EFE8"/>
  <rect x="48" y="32" width="12" height="4" fill="#F2EFE8"/>
  <rect x="64" y="32" width="4" height="4" fill="#F2EFE8"/>
  <rect x="68" y="32" width="8" height="4" fill="#4A5363"/>
  <rect x="32" y="36" width="8" height="4" fill="#4A5363"/>
  <rect x="40" y="36" width="8" height="4" fill="#F2EFE8"/>
  <rect x="48" y="36" width="12" height="4" fill="#F4B63F"/>
  <rect x="60" y="36" width="8" height="4" fill="#F2EFE8"/>
  <rect x="68" y="36" width="8" height="4" fill="#4A5363"/>
  <rect x="28" y="40" width="16" height="4" fill="#4A5363"/>
  <rect x="44" y="40" width="8" height="4" fill="#F2EFE8"/>
  <rect x="52" y="40" width="4" height="4" fill="#F4B63F"/>
  <rect x="56" y="40" width="8" height="4" fill="#F2EFE8"/>
  <rect x="64" y="40" width="16" height="4" fill="#4A5363"/>
  <rect x="24" y="44" width="60" height="4" fill="#4A5363"/>
  <rect x="20" y="48" width="68" height="4" fill="#F4B63F"/>
  <rect x="20" y="52" width="44" height="4" fill="#F4B63F"/>
  <rect x="68" y="52" width="4" height="4" fill="#F4B63F"/>
  <rect x="76" y="52" width="4" height="4" fill="#F4B63F"/>
  <rect x="84" y="52" width="4" height="4" fill="#F4B63F"/>
  <rect x="20" y="56" width="68" height="4" fill="#F4B63F"/>
  <rect x="20" y="64" width="68" height="4" fill="#F4B63F"/>
  <rect x="20" y="68" width="68" height="4" fill="#F4B63F"/>
  <rect x="20" y="72" width="68" height="4" fill="#F4B63F"/>
  <rect x="20" y="76" width="68" height="4" fill="#F4B63F"/>
  <rect x="20" y="80" width="68" height="4" fill="#F4B63F"/>
  <rect x="24" y="84" width="60" height="4" fill="#F4B63F"/>
  <rect x="32" y="88" width="44" height="4" fill="#F4B63F"/>
  <rect x="40" y="92" width="28" height="4" fill="#F4B63F"/>
  <rect x="48" y="96" width="12" height="4" fill="#F4B63F"/>
</svg>
